<svg xmlns="http://www.w3.org/2000/svg" width="1500" height="760" viewBox="0 0 1500 760" font-family="Noto Sans CJK KR, 'Malgun Gothic', 'Apple SD Gothic Neo', sans-serif">
<defs><marker id="ah-374151" markerWidth="11" markerHeight="9" refX="10" refY="4.5" orient="auto"><path d="M0,0 L11,4.5 L0,9 z" fill="#374151"/></marker><marker id="as-374151" markerWidth="11" markerHeight="9" refX="1" refY="4.5" orient="auto"><path d="M11,0 L0,4.5 L11,9 z" fill="#374151"/></marker><marker id="ah-3B82F6" markerWidth="11" markerHeight="9" refX="10" refY="4.5" orient="auto"><path d="M0,0 L11,4.5 L0,9 z" fill="#3B82F6"/></marker><marker id="as-3B82F6" markerWidth="11" markerHeight="9" refX="1" refY="4.5" orient="auto"><path d="M11,0 L0,4.5 L11,9 z" fill="#3B82F6"/></marker><marker id="ah-6366F1" markerWidth="11" markerHeight="9" refX="10" refY="4.5" orient="auto"><path d="M0,0 L11,4.5 L0,9 z" fill="#6366F1"/></marker><marker id="as-6366F1" markerWidth="11" markerHeight="9" refX="1" refY="4.5" orient="auto"><path d="M11,0 L0,4.5 L11,9 z" fill="#6366F1"/></marker><marker id="ah-16A34A" markerWidth="11" markerHeight="9" refX="10" refY="4.5" orient="auto"><path d="M0,0 L11,4.5 L0,9 z" fill="#16A34A"/></marker><marker id="as-16A34A" markerWidth="11" markerHeight="9" refX="1" refY="4.5" orient="auto"><path d="M11,0 L0,4.5 L11,9 z" fill="#16A34A"/></marker><marker id="ah-F97316" markerWidth="11" markerHeight="9" refX="10" refY="4.5" orient="auto"><path d="M0,0 L11,4.5 L0,9 z" fill="#F97316"/></marker><marker id="as-F97316" markerWidth="11" markerHeight="9" refX="1" refY="4.5" orient="auto"><path d="M11,0 L0,4.5 L11,9 z" fill="#F97316"/></marker><marker id="ah-A855F7" markerWidth="11" markerHeight="9" refX="10" refY="4.5" orient="auto"><path d="M0,0 L11,4.5 L0,9 z" fill="#A855F7"/></marker><marker id="as-A855F7" markerWidth="11" markerHeight="9" refX="1" refY="4.5" orient="auto"><path d="M11,0 L0,4.5 L11,9 z" fill="#A855F7"/></marker><marker id="ah-9CA3AF" markerWidth="11" markerHeight="9" refX="10" refY="4.5" orient="auto"><path d="M0,0 L11,4.5 L0,9 z" fill="#9CA3AF"/></marker><marker id="as-9CA3AF" markerWidth="11" markerHeight="9" refX="1" refY="4.5" orient="auto"><path d="M11,0 L0,4.5 L11,9 z" fill="#9CA3AF"/></marker><marker id="ah-D97706" markerWidth="11" markerHeight="9" refX="10" refY="4.5" orient="auto"><path d="M0,0 L11,4.5 L0,9 z" fill="#D97706"/></marker><marker id="as-D97706" markerWidth="11" markerHeight="9" refX="1" refY="4.5" orient="auto"><path d="M11,0 L0,4.5 L11,9 z" fill="#D97706"/></marker><marker id="ah-111827" markerWidth="11" markerHeight="9" refX="10" refY="4.5" orient="auto"><path d="M0,0 L11,4.5 L0,9 z" fill="#111827"/></marker><marker id="as-111827" markerWidth="11" markerHeight="9" refX="1" refY="4.5" orient="auto"><path d="M11,0 L0,4.5 L11,9 z" fill="#111827"/></marker></defs><rect width="1500" height="760" fill="#FFFFFF"/>
<rect x="572.0" y="317.0" width="356" height="126" rx="18" fill="none" stroke="#D97706" stroke-width="3" opacity="0.5"/>
<rect x="580.0" y="325.0" width="340" height="110" rx="12" fill="#FEF3C7" stroke="#D97706" stroke-width="3.5"/>
<text x="750" y="358" font-size="22" font-weight="bold" text-anchor="middle" fill="#111827">paw-trail/config</text>
<text x="750" y="378" font-size="12" font-weight="normal" text-anchor="middle" fill="#4B5563">yml 23개 · 4계층</text>
<text x="750" y="394" font-size="12" font-weight="normal" text-anchor="middle" fill="#4B5563">코드 없음 · 공개 저장소</text>
<text x="572.0" y="311.0" font-size="13" font-weight="bold" text-anchor="start" fill="#D97706">이 레포</text>
<rect x="40.0" y="335.0" width="280" height="90" rx="12" fill="#E0E7FF" stroke="#6366F1" stroke-width="2.2"/>
<text x="180" y="366" font-size="17" font-weight="bold" text-anchor="middle" fill="#111827">config-server</text>
<text x="180" y="386" font-size="12" font-weight="normal" text-anchor="middle" fill="#4B5563">요청마다 여기를 읽음</text>
<rect x="40.0" y="90.0" width="280" height="100" rx="12" fill="#DCFCE7" stroke="#22C55E" stroke-width="2.2"/>
<text x="180" y="118" font-size="17" font-weight="bold" text-anchor="middle" fill="#111827">서비스 17개</text>
<text x="180" y="138" font-size="12" font-weight="normal" text-anchor="middle" fill="#4B5563">각자 application.yml 은 3줄</text>
<text x="180" y="154" font-size="12" font-weight="normal" text-anchor="middle" fill="#4B5563">나머지는 여기서</text>
<rect x="580.0" y="80.0" width="340" height="80" rx="12" fill="#F3F4F6" stroke="#9CA3AF" stroke-width="2.2" stroke-dasharray="9,7"/>
<text x="750" y="106" font-size="17" font-weight="bold" text-anchor="middle" fill="#111827">환경변수</text>
<text x="750" y="126" font-size="12" font-weight="normal" text-anchor="middle" fill="#4B5563">${DB_HOST} · ${SERVICE_DB_PASSWORD} · ${AUTH_…}</text>
<rect x="1150.0" y="155.0" width="300" height="90" rx="12" fill="#DBEAFE" stroke="#3B82F6" stroke-width="2.2"/>
<text x="1300" y="178" font-size="17" font-weight="bold" text-anchor="middle" fill="#111827">gateway-server.yml</text>
<text x="1300" y="198" font-size="12" font-weight="normal" text-anchor="middle" fill="#4B5563">라우트 19 · 공개키 · permit-all 9</text>
<text x="1300" y="214" font-size="12" font-weight="normal" text-anchor="middle" fill="#4B5563">293줄</text>
<rect x="1150.0" y="335.0" width="300" height="90" rx="12" fill="#DCFCE7" stroke="#22C55E" stroke-width="2.2"/>
<text x="1300" y="358" font-size="17" font-weight="bold" text-anchor="middle" fill="#111827">auth-service.yml</text>
<text x="1300" y="378" font-size="12" font-weight="normal" text-anchor="middle" fill="#4B5563">JWT · 메일 · OAuth · permit-all 9</text>
<text x="1300" y="394" font-size="12" font-weight="normal" text-anchor="middle" fill="#4B5563">238줄</text>
<rect x="1150.0" y="510.0" width="300" height="100" rx="12" fill="#E0E7FF" stroke="#6366F1" stroke-width="2.2"/>
<text x="1300" y="538" font-size="17" font-weight="bold" text-anchor="middle" fill="#111827">application-{env}.yml</text>
<text x="1300" y="558" font-size="12" font-weight="normal" text-anchor="middle" fill="#4B5563">local · dev · prod</text>
<text x="1300" y="574" font-size="12" font-weight="normal" text-anchor="middle" fill="#4B5563">주소만 갈림 · prod 는 거의 TODO</text>
<polyline points="580.0,380 320.0,380" fill="none" stroke="#6366F1" stroke-width="2.4" marker-end="url(#ah-6366F1)"/>
<rect x="401" y="360" width="98" height="19" rx="4" fill="#FFFFFF" opacity="0.92"/>
<text x="450.0" y="372.0" font-size="13" font-weight="normal" text-anchor="middle" fill="#6366F1">git clone · pull</text>
<polyline points="180,335.0 180,190.0" fill="none" stroke="#6366F1" stroke-width="2.4" marker-end="url(#ah-6366F1)"/>
<rect x="112" y="242" width="137" height="19" rx="4" fill="#FFFFFF" opacity="0.92"/>
<text x="180.0" y="254.5" font-size="13" font-weight="normal" text-anchor="middle" fill="#6366F1">GET /{서비스명}/{환경}</text>
<polyline points="750,160.0 750,325.0" fill="none" stroke="#9CA3AF" stroke-width="2.4" marker-end="url(#ah-9CA3AF)" stroke-dasharray="7,6"/>
<rect x="690" y="238" width="141" height="19" rx="4" fill="#FFFFFF" opacity="0.92"/>
<text x="760" y="250" font-size="13" font-weight="normal" text-anchor="middle" fill="#9CA3AF">값은 여기 없음 — 자리만</text>
<polyline points="920.0,380 1000,380 1000,200 1150.0,200" fill="none" stroke="#6366F1" stroke-width="2.4" marker-end="url(#ah-6366F1)"/>
<rect x="979" y="268" width="41" height="19" rx="4" fill="#FFFFFF" opacity="0.92"/>
<text x="1000" y="280" font-size="13" font-weight="normal" text-anchor="middle" fill="#6366F1">2계층</text>
<polyline points="920.0,380 1150.0,380" fill="none" stroke="#6366F1" stroke-width="2.4" marker-end="url(#ah-6366F1)"/>
<rect x="989" y="360" width="41" height="19" rx="4" fill="#FFFFFF" opacity="0.92"/>
<text x="1010" y="372" font-size="13" font-weight="normal" text-anchor="middle" fill="#6366F1">2계층</text>
<polyline points="920.0,380 1000,380 1000,560 1150.0,560" fill="none" stroke="#6366F1" stroke-width="2.4" marker-end="url(#ah-6366F1)"/>
<rect x="979" y="468" width="41" height="19" rx="4" fill="#FFFFFF" opacity="0.92"/>
<text x="1000" y="480" font-size="13" font-weight="normal" text-anchor="middle" fill="#6366F1">3계층</text>
<text x="40" y="720" font-size="13" font-weight="normal" text-anchor="start" fill="#4B5563">1 application.yml &lt; 2 {서비스}.yml &lt; 3 application-{env}.yml &lt; 4 {서비스}-{env}.yml — 숫자가 클수록 이김 · 4계층 실사례는 eureka 둘뿐</text>
<text x="1476" y="748" font-size="11" text-anchor="end" fill="#9CA3AF">config 저장소를 중심으로 · 직접 연결된 것만</text></svg>